<svg width="21" height="24" viewBox="0 0 21 24" fill="none" xmlns="http://www.w3.org/2000/svg">
<g clip-path="url(#clip0_4_15)">
<path d="M10.5048 6.60938C7.52354 6.60938 5.11885 9.01406 5.11885 11.9953C5.11885 14.9766 7.52354 17.3813 10.5048 17.3813C13.486 17.3813 15.8907 14.9766 15.8907 11.9953C15.8907 9.01406 13.486 6.60938 10.5048 6.60938ZM10.5048 15.4969C8.57822 15.4969 7.00322 13.9266 7.00322 11.9953C7.00322 10.0641 8.57353 8.49375 10.5048 8.49375C12.436 8.49375 14.0063 10.0641 14.0063 11.9953C14.0063 13.9266 12.4313 15.4969 10.5048 15.4969ZM17.3673 6.38906C17.3673 7.0875 16.8048 7.64531 16.111 7.64531C15.4126 7.64531 14.8548 7.08281 14.8548 6.38906C14.8548 5.69531 15.4173 5.13281 16.111 5.13281C16.8048 5.13281 17.3673 5.69531 17.3673 6.38906ZM20.9345 7.66406C20.8548 5.98125 20.4704 4.49063 19.2376 3.2625C18.0095 2.03438 16.5188 1.65 14.836 1.56563C13.1017 1.46719 7.90322 1.46719 6.16885 1.56563C4.49072 1.64531 3.0001 2.02969 1.76729 3.25781C0.534473 4.48594 0.154785 5.97656 0.0704102 7.65938C-0.0280273 9.39375 -0.0280273 14.5922 0.0704102 16.3266C0.150098 18.0094 0.534473 19.5 1.76729 20.7281C3.0001 21.9563 4.48604 22.3406 6.16885 22.425C7.90322 22.5234 13.1017 22.5234 14.836 22.425C16.5188 22.3453 18.0095 21.9609 19.2376 20.7281C20.4657 19.5 20.8501 18.0094 20.9345 16.3266C21.0329 14.5922 21.0329 9.39844 20.9345 7.66406ZM18.6938 18.1875C18.3282 19.1063 17.6204 19.8141 16.697 20.1844C15.3142 20.7328 12.0329 20.6063 10.5048 20.6063C8.97666 20.6063 5.69072 20.7281 4.3126 20.1844C3.39385 19.8188 2.68604 19.1109 2.31572 18.1875C1.76729 16.8047 1.89385 13.5234 1.89385 11.9953C1.89385 10.4672 1.77197 7.18125 2.31572 5.80313C2.68135 4.88438 3.38916 4.17656 4.3126 3.80625C5.69541 3.25781 8.97666 3.38438 10.5048 3.38438C12.0329 3.38438 15.3188 3.2625 16.697 3.80625C17.6157 4.17188 18.3235 4.87969 18.6938 5.80313C19.2423 7.18594 19.1157 10.4672 19.1157 11.9953C19.1157 13.5234 19.2423 16.8094 18.6938 18.1875Z" fill="#0A1F2F"/>
</g>
<defs>
<clipPath id="clip0_4_15">
<path d="M0 0H21V24H0V0Z" fill="white"/>
</clipPath>
</defs>
</svg>
